{"title":"Scream.XXX.A.Porn.Parody.XXX.DVDRip.XviD-STARLETS","uid":7862280,"size":1467611884,"categoryP":"porn","categoryS":"movies","magnet":"?xt=urn:btih:f7a690112be2349d568921a79cadb28a55483832&amp;dn=Scream.XXX.A.Porn.Parody.XXX.DVDRip.XviD-STARLETS&amp;tr=udp%3A%2F%2Ftracker.openbittorrent.com%3A80&amp;tr=udp%3A%2F%2Fopen.demonii.com%3A1337&amp;tr=udp%3A%2F%2Ftracker.coppersurfer.tk%3A6969&amp;tr=udp%3A%2F%2Fexodus.desync.com%3A6969","seeders":1,"leechers":4,"uploader":"R0thschild","files":4,"time":1353963131,"description":"Gallery: \n &lt;a href=&quot;\nhttp://imagedomino.com/?g=352151&quot; rel=&quot;nofollow&quot; target=&quot;_NEW&quot;&gt;\nhttp://imagedomino.com/?g=352151&lt;/a&gt;\n\nStudio\nVivid\nStarring\nScarlett Fay, Ron Jeremy, Lily LaBeau, Zoe Voss, Sarah Shevon, Jesse Andrews\nGenre\nFeature\nDescription\nSomeone Has Taken Their Love Of Porn Parodies One Step Too Far!Do Not Answer The Phone, Do Not Open The Door, Do Not Forget The Lube!Making Porn Parodies Can Be Murder!This is the only Jesse Andrews video.\n\nDuration                         : 1h 3mn\nBit rate                         : 1 433 Kbps\nWidth                            : 624 pixels\nHeight                           : 352 pixels\nDisplay aspect ratio             : 16:9\nFrame rate                       : 23.976 fps\nColor space                      : YUV\nChroma subsampling               : 4:2:0\nBit depth                        : 8 bits\nScan type                        : Progressive\nCompression mode                 : Lossy\nBits/(Pixel*Frame)               : 0.272\nStream size                      : 647 MiB (92%)\n\nDuration                         : 1h 3mn\nBit rate                         : 1 433 Kbps\nWidth                            : 624 pixels\nHeight                           : 352 pixels\nDisplay aspect ratio             : 16:9\nFrame rate                       : 23.976 fps\nColor space                      : YUV\nChroma subsampling               : 4:2:0\nBit depth                        : 8 bits\nScan type                        : Progressive\nCompression mode                 : Lossy\nBits/(Pixel*Frame)               : 0.272\nStream size                      : 647 MiB (92%)","torrent":{"xt":"urn:btih:f7a690112be2349d568921a79cadb28a55483832","amp;dn":"Scream.XXX.A.Porn.Parody.XXX.DVDRip.XviD-STARLETS","amp;tr":["udp%3A%2F%2Ftracker.openbittorrent.com%3A80","udp%3A%2F%2Fopen.demonii.com%3A1337","udp%3A%2F%2Ftracker.coppersurfer.tk%3A6969","udp%3A%2F%2Fexodus.desync.com%3A6969"],"infoHash":"f7a690112be2349d568921a79cadb28a55483832","infoHashBuffer":{"type":"Buffer","data":[247,166,144,17,43,226,52,157,86,137,33,167,156,173,178,138,85,72,56,50]},"announce":[],"urlList":[]}}